<svg width="158.000000" height="158.000000" viewBox="0 0 158 158" fill="none" xmlns="http://www.w3.org/2000/svg" xmlns:xlink="http://www.w3.org/1999/xlink">
	<desc>
			Created with Pixso.
	</desc>
	<defs>
		<linearGradient x1="0.000023" y1="158.532257" x2="0.386917" y2="158.532257" id="paint_linear_1_447_0" gradientUnits="userSpaceOnUse">
			<stop stop-color="#F0D853"/>
			<stop offset="1.000000" stop-color="#F0D853"/>
		</linearGradient>
		<linearGradient x1="-4.390839" y1="191.194275" x2="-4.003948" y2="191.194275" id="paint_linear_1_453_0" gradientUnits="userSpaceOnUse">
			<stop stop-color="#FEBBBA"/>
			<stop offset="1.000000" stop-color="#FEBBBA"/>
		</linearGradient>
		<linearGradient x1="-1.402939" y1="206.061234" x2="-1.016045" y2="206.061234" id="paint_linear_1_456_0" gradientUnits="userSpaceOnUse">
			<stop stop-color="#FEBBBA"/>
			<stop offset="1.000000" stop-color="#FEBBBA"/>
		</linearGradient>
		<linearGradient x1="-0.575409" y1="173.949249" x2="-0.188515" y2="173.949249" id="paint_linear_1_459_0" gradientUnits="userSpaceOnUse">
			<stop stop-color="#FEBBBA"/>
			<stop offset="1.000000" stop-color="#FEBBBA"/>
		</linearGradient>
		<linearGradient x1="0.745979" y1="172.398895" x2="1.132877" y2="172.398895" id="paint_linear_1_462_0" gradientUnits="userSpaceOnUse">
			<stop stop-color="#FEBBBA"/>
			<stop offset="1.000000" stop-color="#FEBBBA"/>
		</linearGradient>
		<linearGradient x1="-3.407822" y1="163.422897" x2="-3.020920" y2="163.422897" id="paint_linear_1_465_0" gradientUnits="userSpaceOnUse">
			<stop stop-color="#090056"/>
			<stop offset="1.000000" stop-color="#020039"/>
		</linearGradient>
	</defs>
	<mask id="mask1_437" mask-type="alpha" maskUnits="userSpaceOnUse" x="121.677490" y="104.777832" width="11.376221" height="31.495789">
		<g style="mix-blend-mode:normal">
			<path id="Path 3709" d="M121.67 136.27C125.84 133.15 129.65 129.59 133.05 125.66C132.99 124.89 132.94 124.18 132.87 123.53C131.5 109.29 123.95 104.77 123.95 104.77L121.67 136.27Z" fill="#C4C4C4" fill-opacity="1.000000" fill-rule="nonzero"/>
		</g>
	</mask>
	<g mask="url(#mask1_437)">
		<g style="mix-blend-mode:normal">
			<rect id="Rectangle 973" x="121.677490" y="104.777832" width="11.376190" height="31.495783" fill="#F0D853" fill-opacity="1.000000"/>
		</g>
	</g>
	<mask id="mask1_440" mask-type="alpha" maskUnits="userSpaceOnUse" x="38.536133" y="96.221313" width="69.261475" height="54.398315">
		<g style="mix-blend-mode:normal">
			<path id="Path 3710" d="M43.59 96.26C43.59 96.26 41.41 114.41 38.53 138.39C50 146.11 63.82 150.62 78.68 150.62C89.04 150.62 98.89 148.43 107.79 144.49C107.33 121.09 106.94 103.52 106.94 103.52C96.15 96.88 62.14 96.22 48.92 96.22C45.6 96.22 43.59 96.26 43.59 96.26Z" fill="#C4C4C4" fill-opacity="1.000000" fill-rule="nonzero"/>
		</g>
	</mask>
	<g mask="url(#mask1_440)">
		<g style="mix-blend-mode:normal">
			<rect id="Rectangle 974" x="16.604492" y="139.507568" width="79.828918" height="86.369881" transform="rotate(-63.1302 16.604492 139.507568)" fill="#FFFFFF" fill-opacity="1.000000"/>
		</g>
	</g>
	<mask id="mask1_443" mask-type="alpha" maskUnits="userSpaceOnUse" x="21.615723" y="90.260498" width="49.547852" height="59.953308">
		<g style="mix-blend-mode:normal">
			<path id="Path 3711" d="M21.61 101.64C21.61 101.64 22.62 113.08 23.46 124.63C35.13 138.66 52.02 148.18 71.16 150.21C67.77 130.09 58.82 90.26 58.82 90.26L21.61 101.64Z" fill="#C4C4C4" fill-opacity="1.000000" fill-rule="nonzero"/>
		</g>
	</mask>
	<g mask="url(#mask1_443)">
		<g style="mix-blend-mode:normal">
			<rect id="Rectangle 975" x="21.615723" y="90.260498" width="49.547806" height="59.953281" fill="#F0D853" fill-opacity="1.000000"/>
		</g>
	</g>
	<mask id="mask1_446" mask-type="alpha" maskUnits="userSpaceOnUse" x="14.465942" y="102.001465" width="12.297729" height="26.647217">
		<g style="mix-blend-mode:normal">
			<path id="Path 3712" d="M14.46 111.22C17.69 117.63 21.85 123.5 26.76 128.64C26.07 116.45 24.6 105.42 21.61 102C21.61 102 18.58 103.56 14.46 111.22Z" fill="#C4C4C4" fill-opacity="1.000000" fill-rule="nonzero"/>
		</g>
	</mask>
	<g mask="url(#mask1_446)">
		<g style="mix-blend-mode:normal">
			<rect id="Rectangle 976" x="14.465942" y="102.001465" width="12.297771" height="26.647230" fill="url(#paint_linear_1_447_0)" fill-opacity="1.000000"/>
		</g>
	</g>
	<mask id="mask1_449" mask-type="alpha" maskUnits="userSpaceOnUse" x="79.089844" y="94.461792" width="45.357910" height="56.156311">
		<g style="mix-blend-mode:normal">
			<path id="Path 3713" d="M79.08 150.61C95.99 150.5 111.51 144.56 123.74 134.7C124.45 118.44 124.76 105.45 124 104.68C121.92 102.6 96.97 94.46 96.97 94.46C96.97 94.46 84.82 131.61 79.08 150.61Z" fill="#C4C4C4" fill-opacity="1.000000" fill-rule="nonzero"/>
		</g>
	</mask>
	<g mask="url(#mask1_449)">
		<g style="mix-blend-mode:normal">
			<rect id="Rectangle 977" x="79.089844" y="94.461792" width="45.679264" height="56.156319" fill="#F0D853" fill-opacity="1.000000"/>
		</g>
	</g>
	<mask id="mask1_452" mask-type="alpha" maskUnits="userSpaceOnUse" x="60.194580" y="77.842896" width="32.193359" height="26.526489">
		<g style="mix-blend-mode:normal">
			<path id="Path 3714" d="M66.42 77.84L60.19 99.65C72.65 107.95 92.38 102.76 92.38 102.76L89.27 77.84L66.42 77.84Z" fill="#C4C4C4" fill-opacity="1.000000" fill-rule="nonzero"/>
		</g>
	</mask>
	<g mask="url(#mask1_452)">
		<g style="mix-blend-mode:normal">
			<rect id="Rectangle 978" x="53.961914" y="106.608643" width="36.250210" height="37.840481" transform="rotate(-77.7749 53.961914 106.608643)" fill="url(#paint_linear_1_453_0)" fill-opacity="1.000000"/>
		</g>
	</g>
	<mask id="mask1_455" mask-type="alpha" maskUnits="userSpaceOnUse" x="60.183472" y="37.170898" width="39.259155" height="49.847229">
		<g style="mix-blend-mode:normal">
			<path id="Path 3715" d="M60.18 49.86C60.18 49.86 62.33 70.72 65.95 78.87C69.57 87.01 78.62 87.01 79.52 87.01C80.43 87.01 88.58 85.2 93.1 77.96C97.63 70.72 99.44 47.19 99.44 47.19C99.44 47.19 91.29 38.13 80.43 37.23C79.92 37.19 79.4 37.17 78.9 37.17C68.7 37.17 60.18 45.55 60.18 49.86Z" fill="#C4C4C4" fill-opacity="1.000000" fill-rule="nonzero"/>
		</g>
	</mask>
	<g mask="url(#mask1_455)">
		<g style="mix-blend-mode:normal">
			<rect id="Rectangle 979" x="50.192383" y="84.927979" width="56.830902" height="48.634697" transform="rotate(-78.1839 50.192383 84.927979)" fill="url(#paint_linear_1_456_0)" fill-opacity="1.000000"/>
		</g>
	</g>
	<mask id="mask1_458" mask-type="alpha" maskUnits="userSpaceOnUse" x="93.599365" y="52.804443" width="8.629761" height="16.001099">
		<g style="mix-blend-mode:normal">
			<path id="Path 3716" d="M95.44 57.38C95.44 57.38 91.29 68.8 95.44 68.8C99.59 68.8 103.75 55.3 101.67 53.22C101.38 52.93 101.04 52.8 100.67 52.8C98.49 52.8 95.44 57.38 95.44 57.38Z" fill="#C4C4C4" fill-opacity="1.000000" fill-rule="nonzero"/>
		</g>
	</mask>
	<g mask="url(#mask1_458)">
		<g style="mix-blend-mode:normal">
			<rect id="Rectangle 980" x="88.084473" y="68.134521" width="18.214239" height="15.474388" transform="rotate(-78.1839 88.084473 68.134521)" fill="url(#paint_linear_1_459_0)" fill-opacity="1.000000"/>
		</g>
	</g>
	<mask id="mask1_461" mask-type="alpha" maskUnits="userSpaceOnUse" x="56.645996" y="52.854797" width="7.742310" height="15.950378">
		<g style="mix-blend-mode:normal">
			<path id="Path 3717" d="M57.11 53.22C55.04 55.3 60.23 68.8 64.38 68.8L64.38 58.42C64.38 58.42 60.41 52.85 58.02 52.85C57.68 52.85 57.37 52.96 57.11 53.22Z" fill="#C4C4C4" fill-opacity="1.000000" fill-rule="nonzero"/>
		</g>
	</mask>
	<g mask="url(#mask1_461)">
		<g style="mix-blend-mode:normal">
			<rect id="Rectangle 981" x="51.844604" y="68.136353" width="17.526722" height="12.414766" transform="rotate(-78.1839 51.844604 68.136353)" fill="url(#paint_linear_1_462_0)" fill-opacity="1.000000"/>
		</g>
	</g>
	<mask id="mask1_464" mask-type="alpha" maskUnits="userSpaceOnUse" x="54.486328" y="15.760498" width="52.831909" height="47.335571">
		<g style="mix-blend-mode:normal">
			<path id="Path 3718" d="M86.32 19.41C76.73 21.1 66.42 20.74 59.03 28C55.95 31.04 53.86 35.72 54.65 40.09C55.23 43.29 59.98 46.66 57.06 49.59C54.99 51.67 61.25 55.45 62.27 61.35C62.35 61.77 62.42 62.21 62.54 62.61C62.45 59.6 61.29 56.36 61.37 53.43C61.52 47.41 70.58 46.99 75.02 46.59C80.92 46.06 87.35 46.11 92.46 42.67C94.53 41.26 95.85 52.59 95.94 53.15C96.45 56.37 97.06 59.83 96.52 63.09L97.95 63.09C98.36 59.27 97.99 55.61 100.8 52.83C102.15 51.49 103.52 50.13 104.58 48.55C105.22 47.6 105.74 46.59 106.14 45.54C107.24 42.68 107.53 39.5 107.17 36.44C106.63 31.83 104.15 23.28 100.72 19.85C101.7 20.82 92.39 24.76 90.95 24.62C93.75 22.34 97.23 19.73 97.36 15.76C94.12 17.94 90.17 18.73 86.32 19.41Z" fill="#C4C4C4" fill-opacity="1.000000" fill-rule="nonzero"/>
		</g>
	</mask>
	<g mask="url(#mask1_464)">
		<g style="mix-blend-mode:normal">
			<rect id="Rectangle 982" x="47.844727" y="16.538574" width="59.292290" height="53.825462" transform="rotate(-7.3662 47.844727 16.538574)" fill="url(#paint_linear_1_465_0)" fill-opacity="1.000000"/>
		</g>
	</g>
	<mask id="mask1_467" mask-type="alpha" maskUnits="userSpaceOnUse" x="46.792358" y="81.502869" width="19.703613" height="44.739868">
		<g style="mix-blend-mode:normal">
			<path id="Path 3719" d="M49.16 87.37C44.53 93.78 47.42 99.26 51.47 106.05C55.61 113 63.69 118.79 66.34 126.24C67.38 120.25 62.65 113.59 62.53 107.5C62.45 103.14 61.44 97.36 62.81 93.21C64.33 88.62 64.58 86.31 65.37 81.54C65.37 81.51 65.31 81.5 65.18 81.5C63.54 81.5 51.81 83.68 49.16 87.37Z" fill="#C4C4C4" fill-opacity="1.000000" fill-rule="nonzero"/>
		</g>
	</mask>
	<g mask="url(#mask1_467)">
		<g style="mix-blend-mode:normal">
			<rect id="Rectangle 983" x="41.736328" y="126.066467" width="46.085674" height="25.608885" transform="rotate(-86.4012 41.736328 126.066467)" fill="#F0D853" fill-opacity="1.000000"/>
		</g>
	</g>
	<mask id="mask1_470" mask-type="alpha" maskUnits="userSpaceOnUse" x="85.794312" y="83.225464" width="17.546631" height="46.309875">
		<g style="mix-blend-mode:normal">
			<path id="Path 3720" d="M89.93 83.31C90.02 85.16 89.47 95.97 89.72 101.47C90.29 114.15 87.81 116.72 85.79 129.53C88.5 120.87 94.6 116.33 99.4 108.61C104.13 101 105.66 91.52 97.92 86.45C97.43 86.13 91.16 83.22 90.08 83.22C89.98 83.22 89.92 83.25 89.93 83.31Z" fill="#C4C4C4" fill-opacity="1.000000" fill-rule="nonzero"/>
		</g>
	</mask>
	<g mask="url(#mask1_470)">
		<g style="mix-blend-mode:normal">
			<rect id="Rectangle 984" x="82.893188" y="129.352905" width="47.466003" height="22.740805" transform="rotate(-86.4012 82.893188 129.352905)" fill="#F0D853" fill-opacity="1.000000"/>
		</g>
	</g>
</svg>
