<svg width="25.577637" height="13.702881" viewBox="0 0 25.5776 13.7029" fill="currentColor"
	xmlns="http://www.w3.org/2000/svg" xmlns:xlink="http://www.w3.org/1999/xlink">
	<desc>
		Created with Pixso.
	</desc>
	<defs />
	<g opacity="1">
		<mask id="mask1_2179" mask-type="alpha" maskUnits="userSpaceOnUse" x="0.000000" y="0.000000"
			width="25.577637" height="13.702881">
			<g style="mix-blend-mode:normal">
				<rect id="Rectangle 1094" width="25.577826" height="13.702839" fill="currentColor"
					fill-opacity="1.000000" />
			</g>
		</mask>
		<g mask="url(#mask1_2179)">
			<g style="mix-blend-mode:normal">
				<path id="Path 3920"
					d="M24.63 2.93L23.68 2.93C23.5 2.93 23.34 2.98 23.2 3.07L23.2 2.44C23.2 1.9 22.78 1.46 22.26 1.46L21.31 1.46C21.14 1.46 20.98 1.52 20.84 1.6L20.84 0.97C20.84 0.43 20.41 0 19.89 0L18.94 0C18.42 0 18 0.43 18 0.97L18 5.7L7.57 5.7L7.57 0.97C7.57 0.43 7.15 0 6.63 0L5.68 0C5.16 0 4.73 0.43 4.73 0.97L4.73 1.6C4.59 1.52 4.43 1.46 4.26 1.46L3.31 1.46C2.79 1.46 2.37 1.9 2.37 2.44L2.37 3.07C2.22 2.98 2.06 2.93 1.89 2.93L0.94 2.93C0.42 2.93 0 3.37 0 3.91L0 9.78C0 10.32 0.42 10.76 0.94 10.76L1.89 10.76C2.06 10.76 2.22 10.71 2.37 10.62L2.37 11.25C2.37 11.79 2.79 12.23 3.31 12.23L4.26 12.23C4.43 12.23 4.59 12.18 4.73 12.09L4.73 12.72C4.73 13.26 5.16 13.7 5.68 13.7L6.63 13.7C7.15 13.7 7.57 13.26 7.57 12.72L7.57 7.99L18 7.99L18 12.72C18 13.26 18.42 13.7 18.94 13.7L19.89 13.7C20.41 13.7 20.84 13.26 20.84 12.72L20.84 12.09C20.98 12.18 21.14 12.23 21.31 12.23L22.26 12.23C22.78 12.23 23.2 11.79 23.2 11.25L23.2 10.62C23.34 10.71 23.5 10.76 23.68 10.76L24.63 10.76C25.15 10.76 25.57 10.32 25.57 9.78L25.57 3.91C25.57 3.37 25.15 2.93 24.63 2.93Z"
					fill="currentColor" fill-opacity="1.000000" fill-rule="nonzero" />
			</g>
		</g>
	</g>
</svg>